<svg width="41" height="41" viewBox="0 0 41 41" fill="none" xmlns="http://www.w3.org/2000/svg">
<path d="M20.3597 0.166748C21.7634 0.166748 22.9014 1.30469 22.9014 2.70842V17.9584H38.1514C39.5551 17.9584 40.693 19.0964 40.693 20.5001C40.693 21.9038 39.5551 23.0418 38.1514 23.0418H22.9014V38.2918C22.9014 39.6955 21.7634 40.8334 20.3597 40.8334C18.956 40.8334 17.818 39.6955 17.818 38.2918V23.0418H2.56803C1.16431 23.0418 0.0263672 21.9038 0.0263672 20.5001C0.0263672 19.0964 1.16431 17.9584 2.56803 17.9584H17.818V2.70842C17.818 1.30469 18.956 0.166748 20.3597 0.166748Z" fill="#E7E7E7"/>
</svg>
