<svg width="63" height="74" viewBox="0 0 63 74" fill="none" xmlns="http://www.w3.org/2000/svg">
<path fill-rule="evenodd" clip-rule="evenodd" d="M24.8925 45.9649C36.7568 45.9649 46.3748 36.3469 46.3748 24.4826C46.3748 12.6182 36.7568 3.00024 24.8925 3.00024C13.0281 3.00024 3.41016 12.6182 3.41016 24.4826C3.41016 36.3469 13.0281 45.9649 24.8925 45.9649ZM24.8925 48.9649C38.4137 48.9649 49.3748 38.0038 49.3748 24.4826C49.3748 10.9614 38.4137 0.000244141 24.8925 0.000244141C11.3713 0.000244141 0.410156 10.9614 0.410156 24.4826C0.410156 38.0038 11.3713 48.9649 24.8925 48.9649Z" fill="white"/>
<path fill-rule="evenodd" clip-rule="evenodd" d="M38.3574 72.4472C51.3263 72.4472 61.8397 61.9338 61.8397 48.9649C61.8397 35.996 51.3263 25.4826 38.3574 25.4826C25.3884 25.4826 14.875 35.996 14.875 48.9649C14.875 61.9338 25.3884 72.4472 38.3574 72.4472ZM38.3574 73.4472C51.8786 73.4472 62.8397 62.4861 62.8397 48.9649C62.8397 35.4437 51.8786 24.4826 38.3574 24.4826C24.8361 24.4826 13.875 35.4437 13.875 48.9649C13.875 62.4861 24.8361 73.4472 38.3574 73.4472Z" fill="white"/>
</svg>
